HIERARCHY
ROOT Hips
{
	OFFSET 0.00000 0.00000 0.00000
	CHANNELS 6 Xposition Yposition Zposition Zrotation Yrotation Xrotation 
	JOINT LHipJoint
	{
		OFFSET 0 0 0
		CHANNELS 3 Zrotation Yrotation Xrotation
		JOINT LeftHip
		{
			OFFSET 1.57358 -1.76629 0.73362
			CHANNELS 3 Zrotation Yrotation Xrotation
			JOINT LeftKnee
			{
				OFFSET 2.40600 -6.61045 0.00000
				CHANNELS 3 Zrotation Yrotation Xrotation
				JOINT LeftAnkle
				{
					OFFSET 2.66168 -7.31291 0.00000
					CHANNELS 3 Zrotation Yrotation Xrotation
					JOINT LeftToe
					{
						OFFSET 0.20870 -0.57341 2.12506
						CHANNELS 3 Zrotation Yrotation Xrotation
						End Site
						{
							OFFSET 0.00000 -0.00000 1.10557
						}
					}
				}
			}
		}
	}
	JOINT RHipJoint
	{
		OFFSET 0 0 0
		CHANNELS 3 Zrotation Yrotation Xrotation
		JOINT RightHip
		{
			OFFSET -1.49299 -1.76629 0.73362
			CHANNELS 3 Zrotation Yrotation Xrotation
			JOINT RightKnee
			{
				OFFSET -2.43663 -6.69460 0.00000
				CHANNELS 3 Zrotation Yrotation Xrotation
				JOINT RightAnkle
				{
					OFFSET -2.62959 -7.22474 0.00000
					CHANNELS 3 Zrotation Yrotation Xrotation
					JOINT RightToe
					{
						OFFSET -0.25784 -0.70841 2.21862
						CHANNELS 3 Zrotation Yrotation Xrotation
						End Site
						{
							OFFSET -0.00000 -0.00000 1.16452
						}
					}
				}
			}
		}
	}
	JOINT lowerback
	{
		OFFSET 0 0 0
		CHANNELS 3 Zrotation Yrotation Xrotation
		JOINT Chest
		{
			OFFSET -0.00034 2.12399 -0.25450
			CHANNELS 3 Zrotation Yrotation Xrotation
			JOINT Chest2
			{
				OFFSET 0.05594 2.14379 -0.03318
				CHANNELS 3 Zrotation Yrotation Xrotation
				JOINT lowerneck
				{
					OFFSET 0 0 0
					CHANNELS 3 Zrotation Yrotation Xrotation
					JOINT Neck
					{
						OFFSET -0.09835 1.62725 0.24211
						CHANNELS 3 Zrotation Yrotation Xrotation
						JOINT Head
						{
							OFFSET 0.10849 1.66041 -0.22648
							CHANNELS 3 Zrotation Yrotation Xrotation
							End Site
							{
								OFFSET 0.04385 1.68267 -0.10541
							}
						}
					}
				}
				JOINT LeftCollar
				{
					OFFSET 0 0 0
					CHANNELS 3 Zrotation Yrotation Xrotation
					JOINT LeftShoulder
					{
						OFFSET 3.29108 0.79398 -0.68179
CHANNELS 3 Zrotation Xrotation Yrotation
						JOINT LeftElbow
						{
OFFSET 0 -5.153100 -0.000000
CHANNELS 3 Zrotation Xrotation Yrotation
							JOINT LeftWrist
							{
OFFSET 0 -3.751380 -0.000000
CHANNELS 3 Zrotation Xrotation Yrotation
								JOINT lhand
								{
									OFFSET 0 0 0
CHANNELS 3 Zrotation Xrotation Yrotation
									JOINT LFingers
									{
OFFSET 0 -0.529170 0.000000
CHANNELS 3 Zrotation Xrotation Yrotation
										End Site
										{
OFFSET 0 -0.426630 0.000000
										}
									}
								}
								JOINT LThumb
								{
OFFSET 0 0.000000 0.000000
CHANNELS 3 Zrotation Xrotation Yrotation
									End Site
									{
OFFSET 0 -0.433150 0.433150
									}
								}
							}
						}
					}
				}
				JOINT RightCollar
				{
					OFFSET 0 0 0
					CHANNELS 3 Zrotation Yrotation Xrotation
					JOINT RightShoulder
					{
						OFFSET -3.07414 1.06285 -0.44338
CHANNELS 3 Zrotation Xrotation Yrotation
						JOINT RightElbow
						{
OFFSET 0 -5.296130 0.000000
CHANNELS 3 Zrotation Xrotation Yrotation
							JOINT RightWrist
							{
OFFSET 0 -3.761440 -0.000000
CHANNELS 3 Zrotation Xrotation Yrotation
								JOINT rhand
								{
									OFFSET 0 0 0
CHANNELS 3 Zrotation Xrotation Yrotation
									JOINT RFingers
									{
OFFSET 0 -0.747320 0.000000
CHANNELS 3 Zrotation Xrotation Yrotation
										End Site
										{
OFFSET 0 -0.602510 0.000000
										}
									}
								}
								JOINT RThumb
								{
OFFSET 0 0.000000 0.000000
CHANNELS 3 Zrotation Xrotation Yrotation
									End Site
									{
OFFSET 0 -0.611710 0.611710
									}
								}
							}
						}
					}
				}
			}
		}
	}
}
MOTION
Frames: 5
Frame Time: 0.008333333333333333
-10.265300 16.950200 -26.601000 -0.079900 -6.769100 2.977200 0.000000 0.000000 0.000000 -22.347600 3.491000 2.864200 12.241100 18.490700 66.750900 1.221600 -1.756800 21.582600 0.024200 -1.005300 -2.763300 0.000000 0.000000 0.000000 13.012400 15.871300 -28.113600 -5.513200 -13.939400 42.995200 -0.307200 1.329600 -10.088100 -0.371600 3.915600 -10.839400 -4.551500 0.425300 11.282200 2.920500 0.154600 1.219300 5.637000 0.197100 -5.074700 -9.823400 -2.051800 -20.045600 7.055200 -1.241200 12.212600 3.778100 -0.406000 7.116400 0.000000 -0.000000 0.000000 1.730200 11.072900 -31.014000 105.473800 -59.075700 73.359100 16.503800 -25.525800 -8.613200 0.000000 0.000000 0.000000 -7.125000 0.000000 0.000000 -8.974500 38.809300 -1.381800 0.000000 -0.000000 0.000000 -9.673700 20.131800 39.436500 -124.307100 -55.048500 -89.216900 -4.855300 -22.311300 -24.068800 0.000000 0.000000 0.000000 7.125000 0.000000 -0.000000 15.009000 6.504700 13.702600
-10.254678 16.947607 -26.483096 -0.377712 -5.213993 2.782571 0.000000 0.000000 0.000000 -21.750470 2.196011 2.745990 12.605935 18.624802 67.886556 1.024657 -2.429484 19.949820 0.500638 -3.035312 -8.569185 0.000000 0.000000 0.000000 13.537628 14.414999 -27.546887 -5.544314 -13.971518 43.123810 -0.350330 0.798323 -10.916799 -0.398002 4.045074 -11.204347 -3.847981 -0.090114 11.543573 3.003498 -0.439240 1.239736 5.422409 -0.108379 -5.140301 -9.847209 -2.063677 -19.996030 7.011261 -1.247557 12.195649 3.765889 -0.414894 7.103073 0.000000 0.000000 0.000000 1.539474 11.166743 -30.853022 104.796042 -59.151449 72.776858 16.586854 -25.504249 -8.795227 0.000000 0.000000 0.000000 -7.125000 0.000000 0.000000 -8.934632 39.002674 -1.333178 0.000000 0.000000 0.000000 -9.865485 19.664256 39.562154 -124.014167 -55.140336 -88.976297 -4.724460 -22.297862 -24.049674 0.000000 0.000000 0.000000 7.125000 0.000000 0.000000 15.088151 6.533639 13.771630
-10.244056 16.945014 -26.365193 -0.675524 -3.658885 2.587942 0.000000 0.000000 0.000000 -21.153341 0.901022 2.627779 12.970770 18.758904 69.022212 0.827714 -3.102168 18.317039 0.977076 -5.065324 -14.375069 0.000000 0.000000 0.000000 14.062855 12.958697 -26.980175 -5.575428 -14.003635 43.252419 -0.393460 0.267045 -11.745498 -0.424404 4.174548 -11.569293 -3.144462 -0.605528 11.804946 3.086496 -1.033079 1.260172 5.207818 -0.413858 -5.205902 -9.871019 -2.075554 -19.946459 6.967323 -1.253913 12.178698 3.753677 -0.423787 7.089747 0.000000 0.000000 0.000000 1.348749 11.260587 -30.692044 104.118284 -59.227199 72.194617 16.669908 -25.482698 -8.977254 0.000000 0.000000 0.000000 -7.125000 0.000000 0.000000 -8.894764 39.196049 -1.284555 0.000000 0.000000 0.000000 -10.057270 19.196712 39.687809 -123.721234 -55.232172 -88.735695 -4.593620 -22.284424 -24.030549 0.000000 0.000000 0.000000 7.125000 0.000000 0.000000 15.167302 6.562578 13.840661
-10.233433 16.942422 -26.247289 -0.973336 -2.103778 2.393313 0.000000 0.000000 0.000000 -20.556211 -0.393966 2.509569 13.335605 18.893006 70.157867 0.630771 -3.774851 16.684259 1.453514 -7.095336 -20.180954 0.000000 0.000000 0.000000 14.588083 11.502396 -26.413462 -5.606542 -14.035753 43.381029 -0.436590 -0.264232 -12.574197 -0.450807 4.304021 -11.934240 -2.440943 -1.120942 12.066319 3.169494 -1.626919 1.280608 4.993228 -0.719337 -5.271504 -9.894828 -2.087430 -19.896889 6.923384 -1.260270 12.161747 3.741466 -0.432681 7.076420 0.000000 0.000000 0.000000 1.158023 11.354430 -30.531066 103.440526 -59.302948 71.612375 16.752962 -25.461147 -9.159282 0.000000 0.000000 0.000000 -7.125000 0.000000 0.000000 -8.854896 39.389423 -1.235933 0.000000 0.000000 0.000000 -10.249055 18.729167 39.813463 -123.428301 -55.324008 -88.495092 -4.462780 -22.270986 -24.011423 0.000000 0.000000 0.000000 7.125000 0.000000 0.000000 15.246452 6.591518 13.909691
-10.233835 16.931500 -26.140478 -1.304496 -1.873517 2.456622 0.000000 0.000000 0.000000 -19.955741 -0.498204 1.826526 13.683588 19.011349 71.232483 0.492450 -4.356868 15.567296 1.753719 -8.331986 -23.727762 0.000000 0.000000 0.000000 15.088026 11.221525 -26.058864 -5.625791 -14.055614 43.460589 -0.462614 -0.602874 -13.081511 -0.493716 4.493360 -12.471133 -2.113607 -1.147377 12.100062 3.271407 -1.615483 1.265507 4.913665 -0.718209 -5.308986 -9.891429 -2.103085 -19.857893 6.860163 -1.274540 12.128888 3.717286 -0.445468 7.060007 0.000000 0.000000 0.000000 0.979289 11.456602 -30.404081 102.799273 -59.370035 71.060970 16.849194 -25.442683 -9.339685 0.000000 0.000000 0.000000 -7.125000 0.000000 0.000000 -8.803543 39.582509 -1.186539 0.000000 0.000000 0.000000 -10.427593 18.259469 39.924971 -123.140966 -55.412550 -88.258740 -4.474030 -22.241743 -23.988347 0.000000 0.000000 0.000000 7.125000 0.000000 0.000000 15.239773 6.612843 13.896820
